<svg width="242" height="242" viewBox="0 0 242 242" fill="none" xmlns="http://www.w3.org/2000/svg">
    <path d="M242 121C242 92.7767 232.284 66.7796 216.026 46.1753C215.997 46.1244 215.981 46.0721 215.949 46.0226C215.78 45.7586 215.572 45.5373 215.35 45.3351C193.153 17.7141 159.109 0 121 0C82.8905 0 48.8455 17.7155 26.6502 45.3365C26.4289 45.5373 26.2212 45.7586 26.0521 46.0226C26.0205 46.0708 26.004 46.1244 25.9751 46.1739C9.71575 66.7783 0 92.7754 0 121C0 149.229 9.7185 175.229 25.982 195.834C26.0081 195.88 26.0246 195.931 26.0535 195.976C26.2199 196.236 26.4234 196.454 26.642 196.654C48.8372 224.28 82.8864 242 121 242C159.097 242 193.133 224.297 215.328 196.691C215.56 196.485 215.771 196.251 215.947 195.976C215.975 195.931 215.992 195.881 216.018 195.834C232.282 175.229 242 149.229 242 121ZM177.117 161.941C175.257 161.558 173.438 162.751 173.052 164.609C172.411 167.702 171.698 170.709 170.93 173.647C155.497 170.034 138.568 168.088 121.062 168.084C121.059 168.084 121.056 168.083 121.054 168.083C121.051 168.083 121.049 168.084 121.047 168.084C121.032 168.084 121.015 168.083 121 168.083C103.471 168.083 86.5191 170.03 71.0682 173.647C70.3079 170.738 69.6011 167.76 68.9659 164.699C68.5795 162.84 66.759 161.642 64.9014 162.033C63.0424 162.419 61.8489 164.238 62.2353 166.097C62.8911 169.257 63.6171 172.333 64.3968 175.336C51.4236 178.89 39.7086 183.689 29.8403 189.573C16.0792 171.325 7.69037 148.829 6.96437 124.438H35.09C36.9889 124.438 38.5275 122.899 38.5275 121C38.5275 119.101 36.9889 117.562 35.09 117.562H6.96162C7.689 93.1714 16.0779 70.6764 29.8375 52.4274C39.7059 58.311 51.4223 63.1084 64.394 66.6641C63.6144 69.6671 62.8884 72.7416 62.2325 75.9028C61.8461 77.7618 63.0396 79.5809 64.8986 79.9672C65.1337 80.0167 65.3689 80.0401 65.6012 80.0401C67.1963 80.0401 68.6263 78.9236 68.9631 77.3011C69.5984 74.2404 70.3065 71.2621 71.0655 68.3526C86.5177 71.9702 103.469 73.9173 120.997 73.9173H121.044H121.051C121.054 73.9173 121.056 73.9159 121.059 73.9159C138.567 73.9118 155.497 71.9648 170.93 68.3512C171.655 71.1232 172.33 73.9599 172.941 76.8694C173.331 78.727 175.154 79.9122 177.012 79.5272C178.87 79.1367 180.059 77.3149 179.67 75.4559C179.039 72.4529 178.347 69.5241 177.605 66.6628C190.576 63.1084 202.291 58.311 212.158 52.4274C225.919 70.675 234.308 93.1714 235.034 117.562H206.91C205.011 117.562 203.472 119.101 203.472 121C203.472 122.899 205.011 124.438 206.91 124.438H235.037C234.311 148.829 225.921 171.324 212.161 189.573C202.293 183.689 190.578 178.892 177.605 175.336C178.391 172.304 179.124 169.198 179.785 166.005C180.17 164.146 178.975 162.327 177.117 161.941ZM117.616 234.89C99.4001 232.569 82.5371 211.7 72.9327 180.257C86.7776 177.042 101.915 175.234 117.616 175.006V234.89ZM124.491 234.878V175.007C140.154 175.242 155.253 177.05 169.066 180.257C159.482 211.643 142.67 232.489 124.491 234.878ZM124.491 7.1225C142.648 9.515 159.484 30.371 169.07 61.7416C155.255 64.9495 140.155 66.7562 124.491 66.9914V7.1225ZM117.616 7.11013V66.9941C101.915 66.7659 86.7776 64.9577 72.9327 61.743C82.5371 30.2981 99.4001 9.42975 117.616 7.11013ZM207.804 47.0305C198.617 52.3889 187.76 56.7751 175.753 60.0627C168.876 37.2625 158.39 19.7409 145.97 9.66075C170.482 15.1539 192.03 28.5478 207.804 47.0305ZM96.0121 9.66487C83.5945 19.7436 73.117 37.257 66.2448 60.0614C54.2383 56.7751 43.3813 52.3889 34.1963 47.0305C49.9661 28.5519 71.5069 15.1621 96.0121 9.66487ZM34.1963 194.97C43.3813 189.613 54.2383 185.225 66.2448 181.939C73.117 204.742 83.5945 222.256 96.0121 232.335C71.5069 226.838 49.9661 213.448 34.1963 194.97ZM145.993 232.335C158.411 222.256 168.886 204.744 175.757 181.94C187.763 185.226 198.619 189.613 207.804 194.971C192.035 213.447 170.496 226.836 145.993 232.335Z" fill="#ECECEC"/>
    <path d="M195.679 123.339C196.904 122.019 196.904 119.98 195.679 118.661C194.318 117.195 161.882 82.7722 121 82.7722C80.1185 82.7722 47.6823 117.197 46.321 118.661C45.0959 119.981 45.0959 122.02 46.321 123.339C47.6823 124.805 80.1185 159.229 121 159.229C161.882 159.229 194.318 124.805 195.679 123.339ZM121 152.354C89.0918 152.354 61.7059 128.641 53.7102 121C61.7059 113.359 89.0918 89.6458 121 89.6458C152.908 89.6458 180.294 113.359 188.29 121C180.294 128.641 152.908 152.354 121 152.354Z" fill="#E5E5E5"/>
    <path d="M121 141.613C132.384 141.613 141.613 132.384 141.613 121C141.613 109.616 132.384 100.387 121 100.387C109.616 100.387 100.387 109.616 100.387 121C100.387 132.384 109.616 141.613 121 141.613Z" fill="#D12626"/>
</svg>
