<svg width="96" height="96" viewBox="0 0 96 96" fill="none" xmlns="http://www.w3.org/2000/svg">
<g clip-path="url(#clip0)">
<path d="M77.0212 84.3393H56.4495C53.3041 84.3393 50.7456 81.7809 50.7456 78.6354V62.9817C50.7456 59.8363 53.3041 57.2778 56.4495 57.2778H77.0212C80.1658 57.2778 82.7251 59.8363 82.7251 62.9817V78.6354C82.7251 81.7809 80.1658 84.3393 77.0212 84.3393ZM56.4495 60.235C54.9354 60.235 53.7036 61.4676 53.7036 62.9817V78.6354C53.7036 80.1495 54.9354 81.3813 56.4495 81.3813H77.0212C78.5353 81.3813 79.7679 80.1495 79.7679 78.6354V62.9817C79.7679 61.4676 78.5353 60.235 77.0212 60.235H56.4495Z" fill="#676767"/>
<path d="M94.4728 84.3765C94.202 84.3765 93.9321 84.3022 93.6943 84.1553L80.5024 75.9879C79.8081 75.5577 79.5935 74.6463 80.0236 73.952C80.4529 73.2577 81.3652 73.043 82.0586 73.4732L92.9942 80.2437V61.2274L81.9695 67.0337C81.2471 67.4134 80.353 67.1369 79.9724 66.4137C79.5918 65.6913 79.8692 64.7972 80.5916 64.4166L93.7843 57.4686C94.2416 57.2275 94.7931 57.244 95.2373 57.5107C95.6806 57.779 95.9514 58.2586 95.9514 58.7771V82.8979C95.9514 83.4337 95.6608 83.9282 95.1927 84.1891C94.9681 84.3146 94.7205 84.3765 94.4728 84.3765Z" fill="#676767"/>
<path d="M52.225 77.4903H9.92836C4.45398 77.4903 0 73.0364 0 67.562V21.3834C0 15.9091 4.45398 11.4551 9.92836 11.4551H64.8514C70.3258 11.4551 74.7797 15.9091 74.7797 21.3834V58.7564C74.7797 59.5737 74.1176 60.235 73.3003 60.235C72.4838 60.235 71.8217 59.5737 71.8217 58.7564V21.3834C71.8217 17.5396 68.6944 14.4131 64.8514 14.4131H9.92836C6.08449 14.4131 2.95721 17.5396 2.95721 21.3834V67.562C2.95721 71.4058 6.08449 74.5331 9.92836 74.5331H52.225C53.0415 74.5331 53.7036 75.1952 53.7036 76.0117C53.7036 76.8282 53.0415 77.4903 52.225 77.4903Z" fill="#676767"/>
<path d="M73.3003 31.5951H1.4786C0.662111 31.5951 0 30.933 0 30.1165C0 29.3 0.662111 28.6379 1.4786 28.6379H73.3003C74.1176 28.6379 74.7797 29.3 74.7797 30.1165C74.7797 30.933 74.1176 31.5951 73.3003 31.5951Z" fill="#676767"/>
<path d="M21.2041 25.7268C18.9255 25.7268 17.0713 23.8734 17.0713 21.594C17.0713 19.3154 18.9255 17.4612 21.2041 17.4612C23.4827 17.4612 25.3369 19.3154 25.3369 21.594C25.3369 23.8734 23.4827 25.7268 21.2041 25.7268ZM21.2041 20.4184C20.556 20.4184 20.0285 20.9459 20.0285 21.594C20.0285 22.2421 20.556 22.7696 21.2041 22.7696C21.8522 22.7696 22.3797 22.2421 22.3797 21.594C22.3797 20.9459 21.8522 20.4184 21.2041 20.4184Z" fill="#676767"/>
<path d="M9.28127 25.6897C7.00268 25.6897 5.14844 23.8355 5.14844 21.5569C5.14844 19.2775 7.00268 17.4241 9.28127 17.4241C11.5599 17.4241 13.4141 19.2775 13.4141 21.5569C13.4141 23.8355 11.5599 25.6897 9.28127 25.6897ZM9.28127 20.3813C8.63319 20.3813 8.10565 20.9088 8.10565 21.5569C8.10565 22.205 8.63319 22.7325 9.28127 22.7325C9.92934 22.7325 10.4569 22.205 10.4569 21.5569C10.4569 20.9088 9.92934 20.3813 9.28127 20.3813Z" fill="#676767"/>
<path d="M33.127 25.7647C30.8484 25.7647 28.9941 23.9104 28.9941 21.6319C28.9941 19.3524 30.8484 17.499 33.127 17.499C35.4064 17.499 37.2598 19.3524 37.2598 21.6319C37.2598 23.9104 35.4056 25.7647 33.127 25.7647ZM33.127 20.4562C32.4789 20.4562 31.9513 20.9838 31.9513 21.6319C31.9513 22.2799 32.4789 22.8075 33.127 22.8075C33.775 22.8075 34.3026 22.2799 34.3026 21.6319C34.3026 20.983 33.775 20.4562 33.127 20.4562Z" fill="#676767"/>
</g>
<defs>
<clipPath id="clip0">
<rect width="96" height="96" fill="white"/>
</clipPath>
</defs>
</svg>
