<svg width="839" height="273" viewBox="0 0 839 273" fill="none" xmlns="http://www.w3.org/2000/svg">
    <path d="M138.127 273L86.6418 174.098C85.9107 174.098 84.9358 174.22 83.6563 174.464C82.4377 174.464 80.427 174.464 77.7461 174.464C75.248 174.464 71.3485 174.464 65.8648 174.464C60.6858 174.464 53.4962 174.464 44.3567 174.464V273H0V0H78.5382C90.1148 0 101.63 1.82813 112.963 5.54531C124.296 9.2625 134.472 14.8078 143.306 22.2422C152.446 29.6766 159.696 38.6344 165.18 49.2984C170.846 59.6578 173.71 71.4188 173.71 84.4594C173.71 104.203 169.14 121.022 160.001 134.855C150.862 148.688 138.493 158.925 122.956 165.628L185.165 273H138.127ZM44.4176 141.863H84.8139C90.2367 141.863 95.6594 141.009 101.082 139.242C106.505 137.292 111.44 134.184 115.888 129.98C120.336 125.775 123.931 119.986 126.612 112.552C129.353 104.873 130.694 95.4891 130.694 84.3984C130.694 79.95 130.085 74.8922 128.866 69.225C127.647 63.3141 125.027 57.7687 121.067 52.5281C117.35 47.1047 112.049 42.6562 105.164 39.1828C98.2794 35.4656 89.1399 33.6375 77.7461 33.6375H44.4176V141.863ZM261.144 33.6984V119.62H375.204V149.967H261.144V239.241H386.72V273H215.934V0H386.659V33.6984H261.144ZM406.339 273L501.938 0.365625H545.99L640.796 273H594.855L575.236 216.328H472.631L452.646 273H406.339ZM483.049 186.347H564.512L524.116 68.5547L483.049 186.347ZM713.424 0V239.302H839V273H668.275V0H713.424Z" fill="white"/>
</svg>
